<svg width="22" height="15" xmlns="http://www.w3.org/2000/svg">
 <g>
  <title>Layer 1</title>
  <g stroke="null">
   <path stroke="null" d="m20.30817,0.00001l-18.27735,0c-1.11695,0 -2.03082,1.09068 -2.03082,2.42373l0,9.69491l1.01541,0a2.03082,2.42373 0 1 0 4.06163,0l12.1849,0a2.03082,2.42373 0 1 0 4.06163,0l1.01541,0l0,-9.69491a2.03082,2.42373 0 0 0 -2.03082,-2.42373m-14.21572,6.05932l-4.06163,0l0,-3.63559l4.06163,0l0,3.63559zm8.12327,0l-6.09245,0l0,-3.63559l6.09245,0l0,3.63559zm6.09245,0l-4.06163,0l0,-3.63559l4.06163,0l0,3.63559z" fill="#ffffff"/>
  </g>
 </g>

</svg>