<svg xmlns="http://www.w3.org/2000/svg" width="128" height="128" viewBox="0 0 24 24"><g fill="none" fill-rule="evenodd"><path d="m12.593 23.258l-.011.002l-.071.035l-.02.004l-.014-.004l-.071-.035q-.016-.005-.024.005l-.004.01l-.017.428l.005.02l.01.013l.104.074l.015.004l.012-.004l.104-.074l.012-.016l.004-.017l-.017-.427q-.004-.016-.017-.018m.265-.113l-.013.002l-.185.093l-.01.01l-.003.011l.018.43l.005.012l.008.007l.201.093q.019.005.029-.008l.004-.014l-.034-.614q-.005-.018-.02-.022m-.715.002a.02.02 0 0 0-.027.006l-.006.014l-.034.614q.001.018.017.024l.015-.002l.201-.093l.01-.008l.004-.011l.017-.43l-.003-.012l-.01-.01z"/><path fill="#ffffff" d="M21 18a1 1 0 1 1 0 2H2a1 1 0 1 1 0-2zM12 5c3.224 0 5.942 1.075 7.868 2.589C21.759 9.075 23 11.085 23 13c0 .842-.258 1.56-.713 2.14c-.443.566-1.034.95-1.636 1.214c-1.186.518-2.597.646-3.651.646H2.994A1.995 1.995 0 0 1 1 15V7c0-1.101.89-2 1.998-2zM7 7H3v3h4zm5 0H9v3h4V7.04a12 12 0 0 0-.662-.035zm3 .383V10h4.551a8 8 0 0 0-.919-.839c-.962-.756-2.19-1.395-3.632-1.778"/></g></svg>